#!OML:ASF F:\VICON\USERDATA\INSTALL\rory3\rory3.ASF
:FULLY-SPECIFIED
:DEGREES
2681
root 1.44107 18.8659 2.3645 -1.95388 6.3995 -9.49852
lowerback 9.37975 3.97645 0.409075
upperback 1.7184 5.18611 -3.75474
thorax -3.06636 2.56868 -4.73856
lowerneck -12.8007 -4.99692 -5.15667
upperneck 7.95729 -7.68502 16.0242
head 5.38022 -2.91428 5.22983
rclavicle 5.64548e-014 -4.77083e-014
rhumerus 49.6404 1.80282 -33.5252
rradius 75.222
rwrist 29.2395
rhand -53.863 366.472
rfingers 7.12502
rthumb -26.2922 -21.7255
lclavicle 5.64548e-014 -4.77083e-014
lhumerus -25.9925 -9.2019 75.3133
lradius 53.1122
lwrist -17.0682
lhand -42.4116 19.0217
lfingers 7.12502
lthumb -15.2916 48.4364
rfemur -11.6093 9.1725 10.9514
rtibia 39.9226
rfoot 9.54843 -7.05511
rtoes -7.53861
lfemur -10.3757 -9.71261 -7.90191
ltibia 29.1243
lfoot -14.469 7.14402
ltoes -11.5046
2682
root 1.42693 18.8444 2.34927 -1.97527 5.77555 -9.25023
lowerback 9.44215 4.11139 0.381925
upperback 1.80051 5.35875 -3.8932
thorax -2.99008 2.65717 -4.8876
lowerneck -13.0058 -5.03985 -4.97728
upperneck 8.17098 -7.79689 15.9726
head 5.48465 -2.94744 5.1701
rclavicle -5.32743e-014 2.54444e-014
rhumerus 49.7799 4.79905 -32.3848
rradius 76.0811
rwrist 30.4145
rhand -52.6193 366.643
rfingers 7.12502
rthumb -25.1011 -21.7275
lclavicle -5.32743e-014 2.54444e-014
lhumerus -25.5613 -9.48262 75.3087
lradius 52.8864
lwrist -17.153
lhand -42.4756 19.2227
lfingers 7.12502
lthumb -15.3533 48.6327
rfemur -11.7208 9.1638 10.5791
rtibia 39.8934
rfoot 8.52319 -6.19096
rtoes -9.28973
lfemur -10.4079 -9.358 -8.13609
ltibia 29.6224
lfoot -14.7344 7.30865
ltoes -11.815
2683
root 1.41008 18.8191 2.33233 -1.98672 5.16155 -9.05282
lowerback 9.45588 4.21794 0.331491
upperback 1.79966 5.4911 -3.99461
thorax -2.98193 2.72349 -4.98106
lowerneck -12.9818 -5.0306 -4.75358
upperneck 8.45471 -7.84411 15.8164
head 5.55682 -2.96164 5.07926
rclavicle -5.56597e-015 3.18055e-015
rhumerus 50.1131 7.93178 -31.2701
rradius 76.8015
rwrist 31.4441
rhand -51.4775 366.662
rfingers 7.12502
rthumb -24.0065 -21.8566
lclavicle -5.56597e-015 3.18055e-015
lhumerus -25.351 -9.6811 75.2923
lradius 52.7277
lwrist -17.3006
lhand -42.5256 19.3477
lfingers 7.12502
lthumb -15.4015 48.754
rfemur -11.8204 9.22851 10.2822
rtibia 39.7621
rfoot 7.31671 -5.62769
rtoes -10.1591
lfemur -10.5083 -8.98269 -8.29397
ltibia 30.1582
lfoot -15.0489 7.4288
ltoes -11.7088
2684
root 1.38976 18.7943 2.31421 -1.97916 4.54295 -9.04067
lowerback 9.39626 4.29834 0.37954
upperback 1.7244 5.60033 -4.02617
thorax -3.01014 2.776 -5.05141
lowerneck -12.6968 -5.00244 -4.67789
upperneck 8.63305 -7.84982 15.8406
head 5.56149 -2.96536 5.07924
rclavicle -8.22969e-014 2.22639e-014
rhumerus 50.5478 11.3605 -30.2232
rradius 77.4855
rwrist 32.3415
rhand -51.9677 367.341
rfingers 7.12502
rthumb -24.4765 -21.1154
lclavicle -8.22969e-014 2.22639e-014
lhumerus -25.3593 -9.94566 75.2738
lradius 52.6847
lwrist -17.2987
lhand -42.5776 19.1189
lfingers 7.12502
lthumb -15.4516 48.5214
rfemur -11.9258 9.38486 10.2188
rtibia 39.5267
rfoot 5.9487 -5.25856
rtoes -10.7262
lfemur -10.7184 -8.56659 -8.21528
ltibia 30.7513
lfoot -15.3403 7.53412
ltoes -11.592
2685
root 1.36875 18.7696 2.29987 -1.99743 3.9604 -9.02752
lowerback 9.47025 4.44188 0.48576
upperback 1.86704 5.80419 -4.01735
thorax -2.8749 2.88113 -5.12099
lowerneck -13.3757 -5.23276 -4.93051
upperneck 9.00396 -8.18542 15.967
head 5.8469 -3.08164 5.1207
rclavicle 9.54166e-015 -4.45278e-014
rhumerus 51.2289 14.2832 -28.9008
rradius 77.9174
rwrist 33.4613
rhand -52.5449 368.785
rfingers 7.12502
rthumb -25.0297 -19.5946
lclavicle 9.54166e-015 -4.45278e-014
lhumerus -24.7052 -10.2213 75.4349
lradius 52.4376
lwrist -17.2405
lhand -42.6839 19.0823
lfingers 7.12502
lthumb -15.5539 48.4768
rfemur -11.9485 9.48973 10.168
rtibia 39.2032
rfoot 4.46388 -4.7543
rtoes -11.1561
lfemur -10.8978 -8.22282 -8.14407
ltibia 31.3605
lfoot -15.6932 7.63192
ltoes -11.2772
